<svg width="26" height="26" viewBox="0 0 26 26" fill="none" xmlns="http://www.w3.org/2000/svg">
<path d="M24.1406 0.890625H1.85938C1.32354 0.890625 0.890625 1.32354 0.890625 1.85938V24.1406C0.890625 24.6765 1.32354 25.1094 1.85938 25.1094H24.1406C24.6765 25.1094 25.1094 24.6765 25.1094 24.1406V1.85938C25.1094 1.32354 24.6765 0.890625 24.1406 0.890625ZM15.6187 8.12295H19.8085V9.14316H15.6187V8.12295ZM13 16.5359C12.804 16.9079 12.5242 17.2292 12.1826 17.4744C11.8254 17.7227 11.4288 17.9043 11.008 18.0103C10.5678 18.1282 10.1136 18.1863 9.65781 18.1828H4.64453V7.85654H9.51855C10.012 7.85654 10.4601 7.90195 10.8688 7.98672C11.2744 8.07148 11.6195 8.2168 11.9102 8.41357C12.1978 8.61035 12.4248 8.87373 12.5853 9.20068C12.7427 9.52461 12.8244 9.93027 12.8244 10.4116C12.8244 10.9323 12.7063 11.3622 12.4702 11.7104C12.2311 12.0585 11.8859 12.34 11.4167 12.561C12.0555 12.7427 12.5247 13.0666 12.8335 13.5207C13.1483 13.9809 13.3027 14.5318 13.3027 15.1797C13.3027 15.7064 13.2028 16.1575 13 16.5359ZM21.4402 14.9375H16.0395C16.0395 15.5248 16.2423 16.0879 16.548 16.3906C16.8568 16.6903 17.2988 16.8417 17.8771 16.8417C18.2948 16.8417 18.649 16.7357 18.9518 16.5269C19.2515 16.318 19.4331 16.097 19.4997 15.8669H21.3101C21.0194 16.766 20.5774 17.4078 19.978 17.7953C19.3847 18.1828 18.6581 18.3766 17.8135 18.3766C17.2231 18.3766 16.6934 18.2797 16.2181 18.095C15.7609 17.9164 15.3492 17.6439 15.0102 17.2928C14.6758 16.9321 14.4174 16.508 14.2503 16.0455C14.0656 15.5339 13.9748 14.995 13.9809 14.4531C13.9809 13.8931 14.0747 13.3724 14.2563 12.888C14.6045 11.9465 15.328 11.1927 16.2514 10.8021C16.7448 10.5963 17.2746 10.4934 17.8104 10.4994C18.4462 10.4994 18.9972 10.6205 19.4755 10.8688C19.936 11.1058 20.3358 11.4455 20.644 11.8617C20.9498 12.2765 21.1647 12.7487 21.301 13.2815C21.4312 13.8053 21.4766 14.3562 21.4402 14.9375ZM17.7469 12.0434C17.4199 12.0434 17.1444 12.1009 16.9325 12.2129C16.7206 12.3249 16.545 12.4642 16.4118 12.6246C16.285 12.7795 16.1912 12.9588 16.1363 13.1514C16.0879 13.3118 16.0546 13.4753 16.0425 13.6418H19.3877C19.3393 13.1181 19.1576 12.7306 18.9154 12.4581C18.6611 12.1887 18.2524 12.0434 17.7469 12.0434ZM10.2239 11.7376C10.4873 11.5469 10.6145 11.232 10.6145 10.7991C10.6235 10.5933 10.5812 10.3904 10.4903 10.2058C10.4086 10.0574 10.2875 9.9333 10.1392 9.84551C9.98535 9.75223 9.81452 9.69049 9.63662 9.66387C9.44287 9.62754 9.24609 9.60938 9.05234 9.6124H6.92412V12.0252H9.22793C9.62451 12.0282 9.96055 11.9313 10.2239 11.7376ZM10.5812 13.9173C10.2845 13.6902 9.88789 13.5782 9.39443 13.5782H6.91807V16.4239H9.346C9.57305 16.4239 9.78193 16.4027 9.98477 16.3604C10.1876 16.318 10.3692 16.2453 10.5236 16.1424C10.678 16.0425 10.8021 15.9062 10.896 15.7307C10.9868 15.5551 11.0322 15.3311 11.0322 15.0616C11.0322 14.5258 10.8809 14.1474 10.5812 13.9173Z" fill="#F26547"/>
</svg>
